<svg width="157" height="163" viewBox="0 0 157 163" fill="none" xmlns="http://www.w3.org/2000/svg">
<circle opacity="0.1" cx="100.861" cy="106.57" r="56.1394" fill="#07086C"/>
<circle opacity="0.1" cx="53.2848" cy="97.0546" r="53.2848" fill="#07086C"/>
<circle opacity="0.1" cx="90.3942" cy="53.2848" r="53.2848" fill="#07086C"/>
<circle cx="81.1394" cy="82.1394" r="56.1394" fill="#07086C"/>
<circle cx="81.1394" cy="82.1394" r="56.1394" fill="url(#paint0_linear_6_23)"/>
<path d="M56.4262 65C55.0943 65 54 66.0599 54 67.4069V97.9154C54 99.2357 55.0809 100.321 56.4262 100.321H82.2077L80.1231 103.9C79.7652 104.516 80.3303 105.255 81.0247 105.08L84.6528 104.137L85.6271 107.753C85.8134 108.444 86.7495 108.567 87.1106 107.947L91.5549 100.321H94.2863L98.7243 107.947C99.0853 108.567 100.021 108.444 100.208 107.753L101.188 104.137L104.81 105.08C105.507 105.263 106.08 104.519 105.718 103.9L103.626 100.311C104.874 100.193 105.827 99.1591 105.827 97.9154V67.4069C105.827 66.0643 104.725 65 103.393 65H56.4262ZM56.4262 66.6072H103.393C103.856 66.6072 104.206 66.9639 104.206 67.4069V97.9154C104.206 98.3615 103.849 98.715 103.393 98.715H102.697L99.8994 93.906C100.591 92.7237 100.984 91.3454 100.984 89.8841C100.984 85.4598 97.354 81.8544 92.8913 81.8544C88.4287 81.8544 84.7904 85.4598 84.7904 89.8841C84.7904 91.3664 85.201 92.7624 85.9118 93.9562L83.1392 98.715H56.4262C55.9888 98.715 55.6195 98.374 55.6195 97.9154V67.4069C55.6195 66.9639 55.9635 66.6072 56.4262 66.6072ZM74.246 69.8122C73.1641 69.8122 73.1641 71.394 74.246 71.4178H85.5796C86.6694 71.4178 86.6694 69.8361 85.5796 69.8122H74.246ZM61.2864 75.4366H98.5392C99.6244 75.4366 99.6244 73.8309 98.5392 73.8309H61.2864C60.2062 73.8309 60.2062 75.4366 61.2864 75.4366ZM61.2864 77.8419C60.2056 77.8419 60.2056 79.4491 61.2864 79.4491H98.5392C99.62 79.4491 99.62 77.8419 98.5392 77.8419H61.2864ZM92.8913 83.46C96.4471 83.46 99.3711 86.3275 99.3711 89.8841C99.3711 93.4406 96.4471 96.3097 92.8913 96.3097C89.3039 96.3097 86.4116 93.4406 86.4116 89.8841C86.4116 86.3275 89.3039 83.46 92.8913 83.46ZM92.1591 85.2914L91.2133 87.6418L88.7665 87.8473C88.0658 87.9077 87.7832 88.8154 88.3174 89.2898L90.1789 90.9503L89.6143 93.4262C89.4498 94.1375 90.196 94.7002 90.7973 94.3184L92.8929 92.9919L94.9885 94.3152C95.5887 94.6935 96.3312 94.1338 96.17 93.4246L95.6022 90.9472L97.4637 89.2867C97.996 88.8109 97.7116 87.9049 97.0114 87.8457L94.5647 87.6387L93.6173 85.2883C93.4911 84.9764 93.2288 84.7854 92.8874 84.7854C92.5459 84.7854 92.2969 84.9778 92.1591 85.2914ZM92.8897 87.7391L93.2915 88.7347C93.4054 89.0175 93.6614 89.2109 93.9557 89.2365L94.9933 89.3227L94.2056 90.0268C93.981 90.2268 93.8829 90.5401 93.951 90.839L94.1916 91.8911L93.3027 91.3298C93.0497 91.1697 92.7317 91.1697 92.4787 91.3298L91.5914 91.8911L91.8302 90.8421C91.8996 90.5423 91.8012 90.2274 91.5756 90.0268L90.7848 89.3259L91.8223 89.2365C92.1178 89.2122 92.3754 89.0185 92.4898 88.7348L92.8897 87.7391ZM61.2864 93.8966C60.2091 93.8966 60.2091 95.5022 61.2864 95.5022H72.6264C73.713 95.5022 73.713 93.8966 72.6264 93.8966H61.2864ZM98.8489 95.3179L103.346 103.041L100.817 102.384C100.387 102.273 99.9473 102.527 99.8314 102.952L99.1497 105.465L94.6358 97.7209C96.2843 97.3595 97.7451 96.5105 98.8489 95.3179ZM86.9651 95.3564C88.0757 96.539 89.5406 97.3834 91.1895 97.735L86.6915 105.465L86.0098 102.952C85.894 102.524 85.4501 102.27 85.0182 102.384L82.4892 103.041L86.9651 95.3564ZM92.9214 97.9796L93.3516 98.7182H92.4912L92.9214 97.9796Z" fill="white"/>
<defs>
<linearGradient id="paint0_linear_6_23" x1="81.1394" y1="26" x2="81.1394" y2="138.279" gradientUnits="userSpaceOnUse">
<stop stop-color="#040A57"/>
<stop offset="1" stop-color="#3A23E6"/>
</linearGradient>
</defs>
</svg>
