<svg width="157" height="163" viewBox="0 0 157 163" fill="none" xmlns="http://www.w3.org/2000/svg">
<circle opacity="0.1" cx="100.861" cy="106.57" r="56.1394" fill="#07086C"/>
<circle opacity="0.1" cx="53.2848" cy="97.0546" r="53.2848" fill="#07086C"/>
<circle opacity="0.1" cx="90.3942" cy="53.2848" r="53.2848" fill="#07086C"/>
<circle cx="81.1394" cy="82.1394" r="56.1394" fill="#07086C"/>
<circle cx="81.1394" cy="82.1394" r="56.1394" fill="url(#paint0_linear_6_47)"/>
<path d="M105.523 69.1599L81.3853 57.0909C81.2657 57.0311 81.1338 57 81 57C80.8662 57 80.7343 57.0311 80.6147 57.0909L56.4767 69.1599C56.3334 69.2315 56.2129 69.3416 56.1287 69.4779C56.0445 69.6142 55.9999 69.7712 56 69.9314V94.0693C55.9991 94.2303 56.0433 94.3882 56.1276 94.5254C56.2118 94.6625 56.3328 94.7733 56.4767 94.8452L80.6147 106.914C80.7343 106.974 80.8662 107.005 81 107.005C81.1338 107.005 81.2657 106.974 81.3853 106.914L105.523 94.8452C105.667 94.7733 105.788 94.6625 105.872 94.5254C105.957 94.3882 106.001 94.2303 106 94.0693V69.9314C106 69.7712 105.955 69.6142 105.871 69.4779C105.787 69.3416 105.667 69.2315 105.523 69.1599ZM81 81.0366L74.2612 77.6668L95.8009 66.2245L103.215 69.9314L81 81.0366ZM67.3647 74.2185L88.9043 62.7763L93.9043 65.2763L72.3672 76.7202L67.3647 74.2185ZM66.3448 75.6366L71.5172 78.2228V85.0918L69.5405 83.115C69.3789 82.9534 69.1597 82.8625 68.931 82.8625H66.3448V75.6366ZM81 58.8263L87.0103 61.828L65.4707 73.2719L58.7897 69.9314L81 58.8263ZM57.7242 71.3263L64.6207 74.7745V83.7245C64.6207 83.9532 64.7115 84.1724 64.8732 84.3341C65.0349 84.4958 65.2541 84.5866 65.4828 84.5866H68.5741L71.7698 87.7823C71.8904 87.9028 72.044 87.9849 72.2112 88.0181C72.3784 88.0514 72.5517 88.0343 72.7092 87.9691C72.8667 87.9038 73.0013 87.7934 73.096 87.6516C73.1908 87.5099 73.2413 87.3433 73.2414 87.1728V79.0849L80.1379 82.5331V104.743L57.7242 93.5366V71.3263ZM81.8621 104.743V82.5331L104.276 71.3263V93.5366L81.8621 104.743Z" fill="white"/>
<defs>
<linearGradient id="paint0_linear_6_47" x1="81.1394" y1="26" x2="81.1394" y2="138.279" gradientUnits="userSpaceOnUse">
<stop stop-color="#040A57"/>
<stop offset="1" stop-color="#3A23E6"/>
</linearGradient>
</defs>
</svg>
