<svg width="157" height="163" viewBox="0 0 157 163" fill="none" xmlns="http://www.w3.org/2000/svg">
<circle opacity="0.1" cx="100.861" cy="106.57" r="56.1394" fill="#07086C"/>
<circle opacity="0.1" cx="53.2848" cy="97.0545" r="53.2848" fill="#07086C"/>
<circle opacity="0.1" cx="90.3942" cy="53.2848" r="53.2848" fill="#07086C"/>
<circle cx="80.8786" cy="81.8303" r="56.1394" fill="#07086C"/>
<circle cx="80.8786" cy="81.8303" r="56.1394" fill="url(#paint0_linear_6_71)"/>
<path d="M55.5891 90.9728H68.8587V103.473C68.8587 104.853 69.9778 105.973 71.3584 105.973H91.3585C92.7394 105.973 93.8585 104.853 93.8585 103.473V83.4725C93.8585 82.0916 92.7394 80.9725 91.3585 80.9725H78.8585V67.7034C78.8573 67.2368 78.6705 66.79 78.3385 66.4626C78.0147 66.147 77.5798 65.9712 77.1278 65.9728H56.3587C54.9778 65.9728 53.8584 67.0918 53.8584 68.4725V89.2416C53.8596 89.7082 54.047 90.155 54.3784 90.4824C54.7025 90.798 55.1371 90.9737 55.5891 90.9728ZM75.5253 90.9728H76.3588C77.7394 90.9728 78.8585 89.8531 78.8585 88.4725V87.6391H87.1916V99.306H75.5253V90.9728ZM77.1919 88.4725C77.1919 88.9327 76.8187 89.306 76.3588 89.306H58.9033L77.1919 71.0176V88.4725ZM91.3585 82.6391C91.819 82.6391 92.1919 83.0123 92.1919 83.4725V103.473C92.1919 103.933 91.819 104.306 91.3585 104.306H71.3584C70.8982 104.306 70.5253 103.933 70.5253 103.473V90.9728H73.8585V99.306C73.8585 100.226 74.6046 100.973 75.5253 100.973H87.1916C88.1123 100.973 88.8588 100.226 88.8588 99.306V87.6391C88.8588 86.719 88.1123 85.9725 87.1916 85.9725H78.8585V82.6391H91.3585ZM77.1919 67.7034V68.6608L56.5467 89.306H55.5891L55.525 89.2416V87.9723L75.8537 67.6393H77.1278L77.1919 67.7034ZM56.3587 67.6393H73.4968L55.525 85.6109V68.4725C55.525 68.0123 55.8982 67.6393 56.3587 67.6393Z" fill="white"/>
<path d="M86.1625 56.0991C85.5311 55.8382 84.8048 55.988 84.3293 56.4781L78.8581 62.2942C78.2142 62.9381 78.2066 63.98 78.8407 64.6333L84.3464 70.4842C84.8231 70.9609 85.54 71.1031 86.1625 70.8452C86.7854 70.5873 87.1913 69.98 87.1913 69.3059V66.8059H93.0247V73.4725H90.525C89.846 73.4725 89.2354 73.8845 88.9799 74.5134C88.7251 75.1424 88.8774 75.8635 89.3651 76.3356L95.1796 81.8059C95.4939 82.1203 95.9206 82.2967 96.3649 82.2957C96.7967 82.2976 97.2118 82.1279 97.5182 81.8236L103.37 76.3173C103.846 75.841 103.989 75.1241 103.731 74.5015C103.473 73.8787 102.865 73.4728 102.192 73.4725H99.6913V62.639C99.6913 61.2584 98.5722 60.1393 97.1916 60.1393H87.1913V57.639C87.1919 56.9649 86.7854 56.357 86.1625 56.0991ZM97.1916 61.8059C97.6515 61.8059 98.0248 62.1788 98.0248 62.639V74.3059C98.0248 74.7658 98.3977 75.139 98.8582 75.139L102.21 75.122L96.3399 80.6093L90.525 75.139H93.8582C94.3184 75.139 94.6913 74.7658 94.6913 74.3059V66.8059C94.6913 65.8852 93.9452 65.139 93.0247 65.139H86.3582C85.898 65.139 85.5247 65.5123 85.5247 65.9728L85.5424 69.3236L80.0547 63.4551L85.5247 57.639V60.9724C85.5247 61.4326 85.898 61.8059 86.3582 61.8059H97.1916Z" fill="white"/>
<defs>
<linearGradient id="paint0_linear_6_71" x1="80.8786" y1="25.6909" x2="80.8786" y2="137.97" gradientUnits="userSpaceOnUse">
<stop stop-color="#040A57"/>
<stop offset="1" stop-color="#3A23E6"/>
</linearGradient>
</defs>
</svg>
