<svg width="157" height="163" viewBox="0 0 157 163" fill="none" xmlns="http://www.w3.org/2000/svg">
<circle opacity="0.1" cx="100.861" cy="106.57" r="56.1394" fill="#07086C"/>
<circle opacity="0.1" cx="53.2848" cy="97.0545" r="53.2848" fill="#07086C"/>
<circle opacity="0.1" cx="90.3942" cy="53.2848" r="53.2848" fill="#07086C"/>
<circle cx="80.8786" cy="81.8303" r="56.1394" fill="#07086C"/>
<circle cx="80.8786" cy="81.8303" r="56.1394" fill="url(#paint0_linear_6_83)"/>
<path d="M67.3327 101.833H65.666V103.5H67.3327V101.833Z" fill="white"/>
<path d="M84.8322 91.833H70.6656V79.333C70.6656 79.112 70.5778 78.9001 70.4215 78.7438C70.2653 78.5875 70.0533 78.4997 69.8323 78.4997H54.8324C54.6113 78.4997 54.3994 78.5875 54.2431 78.7438C54.0868 78.9001 53.999 79.112 53.999 79.333V106C53.999 106.221 54.0868 106.433 54.2431 106.589C54.3994 106.745 54.6113 106.833 54.8324 106.833H84.8322C85.0532 106.833 85.2652 106.745 85.4215 106.589C85.5778 106.433 85.6655 106.221 85.6655 106V92.6663C85.6655 92.4453 85.5778 92.2333 85.4215 92.077C85.2652 91.9208 85.0532 91.833 84.8322 91.833ZM75.6656 93.4996H78.9989V96.8329H75.6656V93.4996ZM60.6657 80.1664H63.999V83.4997H60.6657V80.1664ZM55.6657 80.1664H58.999V84.333C58.999 84.554 59.0868 84.766 59.2431 84.9223C59.3994 85.0785 59.6113 85.1663 59.8323 85.1663H64.8323C65.0533 85.1663 65.2653 85.0785 65.4216 84.9223C65.5778 84.766 65.6656 84.554 65.6656 84.333V80.1664H68.999V91.833H55.6657V80.1664ZM60.6657 93.4996H63.999V96.8329H60.6657V93.4996ZM55.6657 93.4996H58.999V97.6663C58.999 97.8873 59.0868 98.0993 59.2431 98.2555C59.3994 98.4118 59.6113 98.4996 59.8323 98.4996H64.8323C65.0533 98.4996 65.2653 98.4118 65.4216 98.2555C65.5778 98.0993 65.6656 97.8873 65.6656 97.6663V93.4996H68.999V105.166H55.6657V93.4996ZM83.9989 105.166H70.6656V93.4996H73.9989V97.6663C73.9989 97.8873 74.0867 98.0993 74.243 98.2555C74.3993 98.4118 74.6112 98.4996 74.8323 98.4996H79.8322C80.0533 98.4996 80.2652 98.4118 80.4215 98.2555C80.5778 98.0993 80.6656 97.8873 80.6656 97.6663V93.4996H83.9989V105.166Z" fill="white"/>
<path d="M82.3327 101.833H80.666V103.5H82.3327V101.833Z" fill="white"/>
<path d="M67.3327 88.4996H65.666V90.1663H67.3327V88.4996Z" fill="white"/>
<path d="M102.97 66.8097C103.034 66.8253 103.1 66.8331 103.166 66.8331C103.312 66.833 103.455 66.7946 103.582 66.7218C103.708 66.649 103.814 66.5442 103.887 66.4181C103.963 66.2848 104.001 66.1338 103.999 65.9806V62.6664C103.999 62.4794 103.936 62.2979 103.82 62.151C103.705 62.004 103.543 61.9003 103.361 61.8564L79.1945 56.0231C79.0661 55.992 78.932 55.992 78.8035 56.0231L54.6369 61.8564C54.4552 61.9003 54.2934 62.004 54.1778 62.151C54.0621 62.2979 53.9992 62.4794 53.9991 62.6664V65.9761C53.9963 66.1506 54.0462 66.3219 54.1423 66.4675C54.2376 66.6078 54.3734 66.7156 54.5316 66.7768C54.6898 66.8379 54.8628 66.8494 55.0277 66.8097L56.4991 66.4546V76.833H58.1658V66.0523L78.999 61.0236L99.8323 66.0523V105.166H94.8323V72.6664C94.8323 72.4454 94.7445 72.2334 94.5882 72.0771C94.4319 71.9208 94.22 71.833 93.999 71.833H63.9991C63.7781 71.833 63.5661 71.9208 63.4098 72.0771C63.2536 72.2334 63.1658 72.4454 63.1658 72.6664V75.9997C63.1658 76.2207 63.2536 76.4327 63.4098 76.5889C63.5661 76.7452 63.7781 76.833 63.9991 76.833H93.1656V78.4997H72.3324V80.1663H93.1656V81.833H72.3324V83.4997H93.1656V85.1663H72.3324V86.833H93.1656V105.166H87.3323V106.833H103.999V105.166H101.499V66.4546L102.97 66.8097ZM64.8324 75.1664V73.4997H93.1656V75.1664H64.8324ZM78.999 59.3331C78.9332 59.3331 78.8675 59.3409 78.8035 59.3564L55.6658 64.9413V63.3227L78.999 57.6904L102.332 63.3227V64.9414L79.1945 59.3564C79.1305 59.3409 79.0649 59.3331 78.999 59.3331Z" fill="white"/>
<path d="M80.6653 69.333C81.3284 69.333 81.9643 69.0697 82.4331 68.6008C82.9019 68.132 83.1653 67.4961 83.1653 66.8331C83.1653 66.17 82.9019 65.5341 82.4331 65.0653C81.9643 64.5965 81.3284 64.3331 80.6653 64.3331H77.332C76.669 64.3331 76.0331 64.5965 75.5643 65.0653C75.0954 65.5341 74.832 66.17 74.832 66.8331C74.832 67.4961 75.0954 68.132 75.5643 68.6008C76.0331 69.0697 76.669 69.333 77.332 69.333H80.6653ZM76.4987 66.8331C76.4989 66.6121 76.5868 66.4003 76.743 66.2441C76.8993 66.0879 77.1111 66 77.332 65.9997H80.6653C80.8864 65.9997 81.0983 66.0875 81.2546 66.2438C81.4109 66.4001 81.4987 66.612 81.4987 66.8331C81.4987 67.0541 81.4109 67.266 81.2546 67.4223C81.0983 67.5786 80.8864 67.6664 80.6653 67.6664H77.332C77.1111 67.6661 76.8993 67.5783 76.743 67.422C76.5868 67.2658 76.4989 67.054 76.4987 66.8331Z" fill="white"/>
<defs>
<linearGradient id="paint0_linear_6_83" x1="80.8786" y1="25.6909" x2="80.8786" y2="137.97" gradientUnits="userSpaceOnUse">
<stop stop-color="#040A57"/>
<stop offset="1" stop-color="#3A23E6"/>
</linearGradient>
</defs>
</svg>
