<svg width="157" height="163" viewBox="0 0 157 163" fill="none" xmlns="http://www.w3.org/2000/svg">
<circle opacity="0.1" cx="100.861" cy="106.57" r="56.1394" fill="#07086C"/>
<circle opacity="0.1" cx="53.2848" cy="97.0545" r="53.2848" fill="#07086C"/>
<circle opacity="0.1" cx="90.3942" cy="53.2848" r="53.2848" fill="#07086C"/>
<circle cx="81.1394" cy="82.1394" r="56.1394" fill="#07086C"/>
<circle cx="81.1394" cy="82.1394" r="56.1394" fill="url(#paint0_linear_6_95)"/>
<path d="M91.6744 76.5239C94.2131 72.871 95.8534 68.2642 96.0631 64.2886H97.5466C98.017 64.2886 98.3989 63.9074 98.3989 63.4364V57.8523C98.3989 57.3812 98.017 57 97.5466 57H63.8523C63.3818 57 63 57.3812 63 57.8523V63.4364C63 63.9074 63.3818 64.2886 63.8523 64.2886H65.3358C65.5455 68.2642 67.1858 72.871 69.7239 76.5233C71.4131 78.9545 73.3648 80.8193 75.4437 82.0011C73.3653 83.1801 71.4131 85.0432 69.7244 87.4761C67.1858 91.129 65.5455 95.7358 65.3358 99.7114H63.8523C63.3818 99.7114 63 100.093 63 100.564V106.148C63 106.619 63.3818 107 63.8523 107H97.5472C98.0176 107 98.3994 106.619 98.3994 106.148V100.564C98.3994 100.093 98.0176 99.7114 97.5472 99.7114H96.0631C95.8534 95.7358 94.2131 91.129 91.675 87.4767C89.9864 85.0449 88.033 83.1812 85.9511 82.0017C88.0341 80.8182 89.9875 78.954 91.6744 76.5239ZM64.7045 62.5841V58.7045H96.6949V62.5841M96.6943 101.416V105.295H64.7045V101.416M83.6574 81.2057C82.9352 81.4517 82.9369 82.5551 83.6585 82.8006C86.046 83.7 88.3341 85.6534 90.275 88.4489H90.2756C92.6239 91.8284 94.1477 96.0631 94.3585 99.7114H67.0409C67.2511 96.0636 68.7756 91.8284 71.1244 88.4489C73.067 85.6517 75.3528 83.6983 77.7358 82.8006C78.4574 82.5551 78.4591 81.4523 77.7369 81.2057C75.3528 80.3023 73.0659 78.3472 71.1239 75.5511C68.7756 72.1716 67.2517 67.9369 67.0409 64.2886H94.358C94.1477 67.9364 92.6233 72.1716 90.2744 75.5511C88.3352 78.3449 86.0472 80.3 83.6574 81.2057Z" fill="white"/>
<path d="M69.8154 97.3994C69.8154 97.8704 70.1972 98.2517 70.6677 98.2517H90.7313C91.2018 98.2517 91.5836 97.8704 91.5836 97.3994C91.5836 94.4318 89.1694 92.0176 86.2012 92.0176H75.1972C72.2296 92.017 69.8154 94.4312 69.8154 97.3994ZM89.7791 96.5472H71.62C72.0052 94.929 73.4632 93.7222 75.1978 93.7222H86.2018C87.9359 93.7216 89.3944 94.929 89.7791 96.5472Z" fill="white"/>
<path d="M89.5615 67.5926H71.8376C71.3672 67.5926 70.9854 67.9739 70.9854 68.4449C70.9854 73.7761 75.3183 80.2148 80.6996 80.2148C86.0808 80.2148 90.4138 73.7756 90.4138 68.4449C90.4138 67.9739 90.0319 67.5926 89.5615 67.5926ZM80.6996 78.5102C76.6535 78.5102 73.1507 73.6403 72.7319 69.2972H88.6677C88.2484 73.6403 84.7456 78.5102 80.6996 78.5102Z" fill="white"/>
<path d="M80.6999 84.2722C81.1704 84.2722 81.5522 83.8909 81.5522 83.4199V82C81.5522 81.529 81.1704 81.1477 80.6999 81.1477C80.2295 81.1477 79.8477 81.529 79.8477 82V83.4199C79.8477 83.8903 80.2295 84.2722 80.6999 84.2722Z" fill="white"/>
<path d="M79.8477 88.0841C79.8477 88.5551 80.2295 88.9364 80.6999 88.9364C81.1704 88.9364 81.5522 88.5551 81.5522 88.0841V87.1017C81.5522 86.6307 81.1704 86.2495 80.6999 86.2495C80.2295 86.2495 79.8477 86.6307 79.8477 87.1017V88.0841Z" fill="white"/>
<defs>
<linearGradient id="paint0_linear_6_95" x1="81.1394" y1="26" x2="81.1394" y2="138.279" gradientUnits="userSpaceOnUse">
<stop stop-color="#040A57"/>
<stop offset="1" stop-color="#3A23E6"/>
</linearGradient>
</defs>
</svg>
