<svg width="16" height="16" viewBox="0 0 16 16" fill="none" xmlns="http://www.w3.org/2000/svg">
<path d="M6.57773 6V7.3333H9.42227V6C9.42227 5.26465 8.78438 4.6667 8 4.6667C7.21563 4.6667 6.57773 5.26465 6.57773 6Z" fill="#969AF7"/>
<path fill-rule="evenodd" clip-rule="evenodd" d="M8 16C12.4184 16 16 12.4183 16 8C16 3.58174 12.4184 0 8 0C3.58164 0 0 3.58174 0 8C0 12.4183 3.58164 16 8 16ZM10.1332 6V7.3333H11.2V12H4.8V7.3333H5.8668V6C5.8668 4.8957 6.82188 4 8 4C9.17813 4 10.1332 4.8957 10.1332 6Z" fill="#969AF7"/>
</svg>
