<svg width="14" height="7" viewBox="0 0 14 7" fill="none" xmlns="http://www.w3.org/2000/svg">
<path d="M14.0013 5.83749C14.0018 5.68809 13.9688 5.54048 13.9048 5.4055C13.8407 5.27053 13.7473 5.15161 13.6313 5.05749L7.63125 0.227488C7.45232 0.0804066 7.22788 3.15941e-07 6.99625 3.05816e-07C6.76463 2.95691e-07 6.54018 0.0804065 6.36125 0.227488L0.361252 5.22749C0.157035 5.39723 0.028611 5.64114 0.00423124 5.90556C-0.0201485 6.16999 0.0615134 6.43327 0.231252 6.63749C0.40099 6.8417 0.644902 6.97013 0.909328 6.99451C1.17375 7.01889 1.43704 6.93723 1.64125 6.76749L7.00125 2.29749L12.3613 6.61749C12.508 6.73977 12.6868 6.81745 12.8763 6.84133C13.0659 6.86521 13.2583 6.83429 13.4308 6.75223C13.6034 6.67018 13.7488 6.54042 13.8499 6.37831C13.9509 6.2162 14.0035 6.02852 14.0013 5.83749Z" fill="#000985"/>
</svg>
