<svg width="7" height="13" viewBox="0 0 7 13" fill="none" xmlns="http://www.w3.org/2000/svg">
<path d="M5.70343 12.9426C5.91906 12.943 6.12803 12.8679 6.29407 12.7304C6.38752 12.6529 6.46477 12.5577 6.52139 12.4504C6.57801 12.343 6.61289 12.2255 6.62403 12.1046C6.63518 11.9837 6.62237 11.8619 6.58633 11.7459C6.5503 11.63 6.49175 11.5224 6.41404 11.4291L2.27957 6.48249L6.26638 1.52666C6.34304 1.43226 6.40029 1.32364 6.43484 1.20705C6.46938 1.09045 6.48054 0.968178 6.46768 0.847256C6.45481 0.726333 6.41818 0.609145 6.35988 0.502427C6.30158 0.395709 6.22276 0.301565 6.12795 0.225407C6.03247 0.141391 5.92065 0.0780199 5.79951 0.0392693C5.67837 0.000518654 5.55053 -0.0127742 5.42401 0.000224432C5.29749 0.013223 5.17502 0.0522327 5.06429 0.114805C4.95356 0.177378 4.85697 0.262162 4.78056 0.363838L0.323075 5.90108C0.187337 6.06622 0.113133 6.27335 0.113133 6.48711C0.113133 6.70087 0.187337 6.908 0.323075 7.07313L4.93745 12.6104C5.03003 12.7221 5.14763 12.8103 5.28072 12.8681C5.41381 12.9258 5.55863 12.9513 5.70343 12.9426Z" fill="white"/>
</svg>
